<svg xmlns="http://www.w3.org/2000/svg" width="217.85" height="35" viewBox="0 0 217.85 35"><rect class="svg__rect" x="0" y="0" width="123.84" height="35" fill="#E46C17"/><rect class="svg__rect" x="121.84" y="0" width="96.00999999999999" height="35" fill="#DEB496"/><path class="svg__text" d="M13.78 19.42L13.78 19.42L15.27 19.42Q15.27 20.15 15.75 20.55Q16.23 20.95 17.12 20.95L17.12 20.95Q17.90 20.95 18.29 20.63Q18.68 20.32 18.68 19.80L18.68 19.80Q18.68 19.24 18.28 18.94Q17.89 18.63 16.85 18.32Q15.82 18.01 15.21 17.63L15.21 17.63Q14.05 16.90 14.05 15.72L14.05 15.72Q14.05 14.69 14.89 14.02Q15.73 13.35 17.07 13.35L17.07 13.35Q17.96 13.35 18.66 13.68Q19.36 14.01 19.75 14.61Q20.15 15.22 20.15 15.96L20.15 15.96L18.68 15.96Q18.68 15.29 18.26 14.91Q17.84 14.54 17.06 14.54L17.06 14.54Q16.33 14.54 15.93 14.85Q15.53 15.16 15.53 15.71L15.53 15.71Q15.53 16.18 15.96 16.50Q16.40 16.81 17.39 17.10Q18.39 17.40 18.99 17.78Q19.60 18.16 19.88 18.65Q20.16 19.13 20.16 19.79L20.16 19.79Q20.16 20.86 19.34 21.49Q18.52 22.12 17.12 22.12L17.12 22.12Q16.20 22.12 15.42 21.77Q14.64 21.43 14.21 20.83Q13.78 20.22 13.78 19.42ZM24.18 18.19L24.18 18.19L24.18 17.39Q24.18 16.19 24.61 15.27Q25.03 14.35 25.83 13.85Q26.63 13.35 27.68 13.35L27.68 13.35Q29.09 13.35 29.96 14.12Q30.82 14.89 30.96 16.29L30.96 16.29L29.48 16.29Q29.38 15.37 28.94 14.96Q28.51 14.55 27.68 14.55L27.68 14.55Q26.72 14.55 26.20 15.26Q25.68 15.96 25.67 17.33L25.67 17.33L25.67 18.09Q25.67 19.47 26.16 20.20Q26.66 20.92 27.61 20.92L27.61 20.92Q28.48 20.92 28.92 20.53Q29.36 20.14 29.48 19.22L29.48 19.22L30.96 19.22Q30.83 20.59 29.95 21.35Q29.07 22.12 27.61 22.12L27.61 22.12Q26.59 22.12 25.82 21.63Q25.04 21.15 24.62 20.26Q24.20 19.37 24.18 18.19ZM36.75 22L35.27 22L35.27 13.47L38.27 13.47Q39.75 13.47 40.55 14.13Q41.35 14.79 41.35 16.05L41.35 16.05Q41.35 16.90 40.94 17.48Q40.53 18.06 39.79 18.37L39.79 18.37L41.70 21.92L41.70 22L40.12 22L38.40 18.71L36.75 18.71L36.75 22ZM36.75 14.66L36.75 17.52L38.28 17.52Q39.03 17.52 39.45 17.15Q39.87 16.77 39.87 16.11L39.87 16.11Q39.87 15.43 39.48 15.05Q39.09 14.68 38.32 14.66L38.32 14.66L36.75 14.66ZM46.53 22L44.98 22L48.21 13.47L49.54 13.47L52.77 22L51.22 22L50.52 20.01L47.22 20.01L46.53 22ZM48.87 15.28L47.63 18.82L50.11 18.82L48.87 15.28ZM58.20 22L56.72 22L56.72 13.47L59.98 13.47Q61.41 13.47 62.26 14.21Q63.10 14.96 63.10 16.18L63.10 16.18Q63.10 17.44 62.27 18.13Q61.45 18.83 59.97 18.83L59.97 18.83L58.20 18.83L58.20 22ZM58.20 14.66L58.20 17.64L59.98 17.64Q60.78 17.64 61.19 17.27Q61.61 16.90 61.61 16.19L61.61 16.19Q61.61 15.50 61.19 15.09Q60.76 14.68 60.03 14.66L60.03 14.66L58.20 14.66ZM74.74 22L72.77 13.47L74.24 13.47L75.56 19.88L77.19 13.47L78.44 13.47L80.05 19.89L81.36 13.47L82.83 13.47L80.86 22L79.44 22L77.82 15.77L76.16 22L74.74 22ZM88.47 22L86.99 22L86.99 13.47L88.47 13.47L88.47 22ZM94.96 14.66L92.32 14.66L92.32 13.47L99.09 13.47L99.09 14.66L96.43 14.66L96.43 22L94.96 22L94.96 14.66ZM104.33 22L102.85 22L102.85 13.47L104.33 13.47L104.33 17.02L108.14 17.02L108.14 13.47L109.62 13.47L109.62 22L108.14 22L108.14 18.21L104.33 18.21L104.33 22Z" fill="#000000"/><path class="svg__text" d="M138.41 22L136.03 22L136.03 13.60L139.87 13.60Q141.01 13.60 141.85 13.98Q142.69 14.35 143.15 15.06Q143.60 15.76 143.60 16.71L143.60 16.71Q143.60 17.66 143.15 18.35Q142.69 19.05 141.85 19.42Q141.01 19.80 139.87 19.80L139.87 19.80L138.41 19.80L138.41 22ZM138.41 15.47L138.41 17.93L139.73 17.93Q140.46 17.93 140.83 17.61Q141.20 17.29 141.20 16.71L141.20 16.71Q141.20 16.12 140.83 15.80Q140.46 15.47 139.73 15.47L139.73 15.47L138.41 15.47ZM150.48 18.95L147.28 13.60L149.79 13.60L151.78 16.94L153.77 13.60L156.07 13.60L152.86 18.99L152.86 22L150.48 22L150.48 18.95ZM161.95 15.48L159.37 15.48L159.37 13.60L166.89 13.60L166.89 15.48L164.32 15.48L164.32 22L161.95 22L161.95 15.48ZM173.64 22L171.26 22L171.26 13.60L173.64 13.60L173.64 16.76L176.88 16.76L176.88 13.60L179.25 13.60L179.25 22L176.88 22L176.88 18.72L173.64 18.72L173.64 22ZM183.99 17.80L183.99 17.80Q183.99 16.55 184.59 15.55Q185.19 14.56 186.26 14.00Q187.32 13.43 188.65 13.43L188.65 13.43Q189.98 13.43 191.04 14.00Q192.11 14.56 192.71 15.55Q193.32 16.55 193.32 17.80L193.32 17.80Q193.32 19.05 192.71 20.04Q192.11 21.04 191.05 21.60Q189.99 22.17 188.65 22.17L188.65 22.17Q187.32 22.17 186.26 21.60Q185.19 21.04 184.59 20.04Q183.99 19.05 183.99 17.80ZM186.38 17.80L186.38 17.80Q186.38 18.51 186.69 19.05Q186.99 19.60 187.50 19.90Q188.02 20.20 188.65 20.20L188.65 20.20Q189.29 20.20 189.81 19.90Q190.32 19.60 190.62 19.05Q190.92 18.51 190.92 17.80L190.92 17.80Q190.92 17.09 190.62 16.54Q190.32 16 189.81 15.70Q189.29 15.40 188.65 15.40L188.65 15.40Q188.01 15.40 187.50 15.70Q186.99 16 186.69 16.54Q186.38 17.09 186.38 17.80ZM200.38 22L198.05 22L198.05 13.60L200.01 13.60L203.72 18.07L203.72 13.60L206.04 13.60L206.04 22L204.09 22L200.38 17.52L200.38 22Z" fill="#000000" x="134.84"/></svg>