<svg xmlns="http://www.w3.org/2000/svg" width="177.86" height="35" viewBox="0 0 177.86 35"><rect class="svg__rect" x="0" y="0" width="122" height="35" fill="#1DA0BB"/><rect class="svg__rect" x="120" y="0" width="57.860000000000014" height="35" fill="#B4CFD4"/><path class="svg__text" d="M13.78 19.42L13.78 19.42L15.27 19.42Q15.27 20.15 15.75 20.55Q16.23 20.95 17.12 20.95L17.12 20.95Q17.90 20.95 18.29 20.63Q18.68 20.32 18.68 19.80L18.68 19.80Q18.68 19.24 18.28 18.94Q17.89 18.63 16.85 18.32Q15.82 18.01 15.21 17.63L15.21 17.63Q14.05 16.90 14.05 15.72L14.05 15.72Q14.05 14.69 14.89 14.02Q15.73 13.35 17.07 13.35L17.07 13.35Q17.96 13.35 18.66 13.68Q19.36 14.01 19.75 14.61Q20.15 15.22 20.15 15.96L20.15 15.96L18.68 15.96Q18.68 15.29 18.26 14.91Q17.84 14.54 17.06 14.54L17.06 14.54Q16.33 14.54 15.93 14.85Q15.53 15.16 15.53 15.71L15.53 15.71Q15.53 16.18 15.96 16.50Q16.40 16.81 17.39 17.10Q18.39 17.40 18.99 17.78Q19.60 18.16 19.88 18.65Q20.16 19.13 20.16 19.79L20.16 19.79Q20.16 20.86 19.34 21.49Q18.52 22.12 17.12 22.12L17.12 22.12Q16.20 22.12 15.42 21.77Q14.64 21.43 14.21 20.83Q13.78 20.22 13.78 19.42ZM26.13 14.66L23.49 14.66L23.49 13.47L30.26 13.47L30.26 14.66L27.60 14.66L27.60 22L26.13 22L26.13 14.66ZM33.75 18.00L33.75 18.00L33.75 17.52Q33.75 16.28 34.19 15.32Q34.63 14.37 35.44 13.86Q36.24 13.35 37.29 13.35Q38.33 13.35 39.13 13.85Q39.94 14.35 40.38 15.29Q40.82 16.23 40.82 17.48L40.82 17.48L40.82 17.96Q40.82 19.21 40.39 20.16Q39.96 21.10 39.15 21.61Q38.35 22.12 37.30 22.12L37.30 22.12Q36.26 22.12 35.45 21.61Q34.64 21.10 34.19 20.17Q33.75 19.23 33.75 18.00ZM35.23 17.46L35.23 17.96Q35.23 19.36 35.78 20.13Q36.32 20.90 37.30 20.90L37.30 20.90Q38.28 20.90 38.81 20.15Q39.34 19.40 39.34 17.96L39.34 17.96L39.34 17.51Q39.34 16.09 38.81 15.34Q38.27 14.58 37.29 14.58L37.29 14.58Q36.32 14.58 35.78 15.33Q35.24 16.09 35.23 17.46L35.23 17.46ZM46.77 22L45.29 22L45.29 13.47L48.29 13.47Q49.77 13.47 50.57 14.13Q51.37 14.79 51.37 16.05L51.37 16.05Q51.37 16.90 50.96 17.48Q50.55 18.06 49.81 18.37L49.81 18.37L51.72 21.92L51.72 22L50.14 22L48.42 18.71L46.77 18.71L46.77 22ZM46.77 14.66L46.77 17.52L48.30 17.52Q49.05 17.52 49.47 17.15Q49.89 16.77 49.89 16.11L49.89 16.11Q49.89 15.43 49.50 15.05Q49.11 14.68 48.34 14.66L48.34 14.66L46.77 14.66ZM61.34 22L55.77 22L55.77 13.47L61.30 13.47L61.30 14.66L57.25 14.66L57.25 17.02L60.75 17.02L60.75 18.19L57.25 18.19L57.25 20.82L61.34 20.82L61.34 22ZM72.90 22L70.93 13.47L72.40 13.47L73.72 19.88L75.35 13.47L76.60 13.47L78.21 19.89L79.52 13.47L80.99 13.47L79.02 22L77.60 22L75.98 15.77L74.32 22L72.90 22ZM86.63 22L85.15 22L85.15 13.47L86.63 13.47L86.63 22ZM93.12 14.66L90.48 14.66L90.48 13.47L97.25 13.47L97.25 14.66L94.59 14.66L94.59 22L93.12 22L93.12 14.66ZM102.49 22L101.01 22L101.01 13.47L102.49 13.47L102.49 17.02L106.30 17.02L106.30 13.47L107.78 13.47L107.78 22L106.30 22L106.30 18.21L102.49 18.21L102.49 22Z" fill="#000000"/><path class="svg__text" d="M133.60 21.24L133.60 21.24L134.38 19.49Q134.94 19.86 135.69 20.09Q136.43 20.32 137.15 20.32L137.15 20.32Q138.52 20.32 138.52 19.64L138.52 19.64Q138.52 19.28 138.13 19.11Q137.74 18.93 136.88 18.74L136.88 18.74Q135.93 18.53 135.29 18.30Q134.66 18.06 134.20 17.55Q133.75 17.03 133.75 16.16L133.75 16.16Q133.75 15.39 134.17 14.77Q134.59 14.15 135.42 13.79Q136.26 13.43 137.46 13.43L137.46 13.43Q138.29 13.43 139.10 13.62Q139.90 13.80 140.52 14.17L140.52 14.17L139.78 15.93Q138.58 15.28 137.45 15.28L137.45 15.28Q136.74 15.28 136.42 15.49Q136.10 15.70 136.10 16.04L136.10 16.04Q136.10 16.37 136.48 16.54Q136.87 16.71 137.72 16.89L137.72 16.89Q138.68 17.10 139.31 17.33Q139.94 17.56 140.40 18.07Q140.86 18.58 140.86 19.46L140.86 19.46Q140.86 20.21 140.44 20.83Q140.02 21.44 139.18 21.80Q138.34 22.17 137.14 22.17L137.14 22.17Q136.12 22.17 135.16 21.92Q134.20 21.67 133.60 21.24ZM145.01 17.80L145.01 17.80Q145.01 16.55 145.61 15.55Q146.22 14.56 147.28 14.00Q148.34 13.43 149.67 13.43L149.67 13.43Q151.00 13.43 152.07 14.00Q153.13 14.56 153.74 15.55Q154.34 16.55 154.34 17.80L154.34 17.80Q154.34 19.22 153.57 20.30Q152.80 21.39 151.49 21.85L151.49 21.85Q151.73 22.12 151.96 22.23Q152.19 22.33 152.47 22.33L152.47 22.33Q153.18 22.33 153.75 21.75L153.75 21.75L154.78 22.97Q154.36 23.49 153.75 23.76Q153.14 24.03 152.42 24.03L152.42 24.03Q151.72 24.03 151.16 23.85Q150.60 23.67 150.03 23.25Q149.46 22.84 148.75 22.09L148.75 22.09Q147.66 21.91 146.81 21.31Q145.95 20.72 145.48 19.81Q145.01 18.89 145.01 17.80ZM147.41 17.80L147.41 17.80Q147.41 18.51 147.71 19.05Q148.01 19.60 148.53 19.90Q149.04 20.20 149.67 20.20L149.67 20.20Q150.31 20.20 150.83 19.90Q151.34 19.60 151.64 19.05Q151.94 18.51 151.94 17.80L151.94 17.80Q151.94 17.09 151.64 16.54Q151.34 16 150.83 15.70Q150.31 15.40 149.67 15.40L149.67 15.40Q149.04 15.40 148.52 15.70Q148.01 16 147.71 16.54Q147.41 17.09 147.41 17.80ZM165.46 22L159.07 22L159.07 13.60L161.45 13.60L161.45 20.11L165.46 20.11L165.46 22Z" fill="#000000" x="133"/></svg>