<svg xmlns="http://www.w3.org/2000/svg" width="269.6" height="35" viewBox="0 0 269.6 35"><rect class="svg__rect" x="0" y="0" width="155.98" height="35" fill="#419B5A"/><rect class="svg__rect" x="153.98" y="0" width="115.62000000000003" height="35" fill="#BCDBA7"/><path class="svg__text" d="M16.51 22L13.46 13.47L15.08 13.47L17.22 20.14L19.39 13.47L21.02 13.47L17.95 22L16.51 22ZM26.53 22L25.06 22L25.06 13.47L26.53 13.47L26.53 22ZM30.91 19.42L30.91 19.42L32.39 19.42Q32.39 20.15 32.87 20.55Q33.35 20.95 34.25 20.95L34.25 20.95Q35.02 20.95 35.41 20.63Q35.80 20.32 35.80 19.80L35.80 19.80Q35.80 19.24 35.41 18.94Q35.01 18.63 33.98 18.32Q32.95 18.01 32.34 17.63L32.34 17.63Q31.17 16.90 31.17 15.72L31.17 15.72Q31.17 14.69 32.02 14.02Q32.86 13.35 34.20 13.35L34.20 13.35Q35.09 13.35 35.79 13.68Q36.48 14.01 36.88 14.61Q37.28 15.22 37.28 15.96L37.28 15.96L35.80 15.96Q35.80 15.29 35.38 14.91Q34.97 14.54 34.19 14.54L34.19 14.54Q33.46 14.54 33.06 14.85Q32.66 15.16 32.66 15.71L32.66 15.71Q32.66 16.18 33.09 16.50Q33.52 16.81 34.52 17.10Q35.52 17.40 36.12 17.78Q36.72 18.16 37.00 18.65Q37.29 19.13 37.29 19.79L37.29 19.79Q37.29 20.86 36.47 21.49Q35.65 22.12 34.25 22.12L34.25 22.12Q33.32 22.12 32.55 21.77Q31.77 21.43 31.34 20.83Q30.91 20.22 30.91 19.42ZM41.44 19.16L41.44 19.16L41.44 13.47L42.92 13.47L42.92 19.18Q42.92 20.03 43.35 20.48Q43.78 20.93 44.63 20.93L44.63 20.93Q46.34 20.93 46.34 19.13L46.34 19.13L46.34 13.47L47.81 13.47L47.81 19.17Q47.81 20.53 46.94 21.32Q46.07 22.12 44.63 22.12L44.63 22.12Q43.16 22.12 42.30 21.33Q41.44 20.55 41.44 19.16ZM53.16 22L51.62 22L54.85 13.47L56.18 13.47L59.40 22L57.86 22L57.16 20.01L53.86 20.01L53.16 22ZM55.51 15.28L54.27 18.82L56.74 18.82L55.51 15.28ZM68.72 22L63.36 22L63.36 13.47L64.84 13.47L64.84 20.82L68.72 20.82L68.72 22ZM74.40 22L72.93 22L72.93 13.47L74.40 13.47L74.40 22ZM85.17 22L78.82 22L78.82 21.04L83.23 14.66L78.85 14.66L78.85 13.47L85.03 13.47L85.03 14.41L80.61 20.82L85.17 20.82L85.17 22ZM95.01 22L89.43 22L89.43 13.47L94.97 13.47L94.97 14.66L90.91 14.66L90.91 17.02L94.41 17.02L94.41 18.19L90.91 18.19L90.91 20.82L95.01 20.82L95.01 22ZM106.56 22L104.59 13.47L106.06 13.47L107.39 19.88L109.02 13.47L110.26 13.47L111.87 19.89L113.18 13.47L114.65 13.47L112.68 22L111.27 22L109.64 15.77L107.98 22L106.56 22ZM120.29 22L118.81 22L118.81 13.47L120.29 13.47L120.29 22ZM126.78 14.66L124.14 14.66L124.14 13.47L130.91 13.47L130.91 14.66L128.25 14.66L128.25 22L126.78 22L126.78 14.66ZM136.15 22L134.67 22L134.67 13.47L136.15 13.47L136.15 17.02L139.97 17.02L139.97 13.47L141.44 13.47L141.44 22L139.97 22L139.97 18.21L136.15 18.21L136.15 22Z" fill="#000000"/><path class="svg__text" d="M170.55 22L168.17 22L168.17 13.60L172.01 13.60Q173.15 13.60 173.99 13.98Q174.83 14.35 175.29 15.06Q175.74 15.76 175.74 16.71L175.74 16.71Q175.74 17.66 175.29 18.35Q174.83 19.05 173.99 19.42Q173.15 19.80 172.01 19.80L172.01 19.80L170.55 19.80L170.55 22ZM170.55 15.47L170.55 17.93L171.87 17.93Q172.60 17.93 172.97 17.61Q173.34 17.29 173.34 16.71L173.34 16.71Q173.34 16.12 172.97 15.80Q172.60 15.47 171.87 15.47L171.87 15.47L170.55 15.47ZM180.07 17.80L180.07 17.80Q180.07 16.55 180.67 15.55Q181.28 14.56 182.34 14.00Q183.40 13.43 184.73 13.43L184.73 13.43Q186.06 13.43 187.13 14.00Q188.19 14.56 188.80 15.55Q189.40 16.55 189.40 17.80L189.40 17.80Q189.40 19.05 188.80 20.04Q188.19 21.04 187.13 21.60Q186.07 22.17 184.73 22.17L184.73 22.17Q183.40 22.17 182.34 21.60Q181.28 21.04 180.67 20.04Q180.07 19.05 180.07 17.80ZM182.46 17.80L182.46 17.80Q182.46 18.51 182.77 19.05Q183.07 19.60 183.58 19.90Q184.10 20.20 184.73 20.20L184.73 20.20Q185.37 20.20 185.89 19.90Q186.40 19.60 186.70 19.05Q187.00 18.51 187.00 17.80L187.00 17.80Q187.00 17.09 186.70 16.54Q186.40 16 185.89 15.70Q185.37 15.40 184.73 15.40L184.73 15.40Q184.09 15.40 183.58 15.70Q183.07 16 182.77 16.54Q182.46 17.09 182.46 17.80ZM196.21 22L193.49 13.60L195.94 13.60L197.62 18.96L199.40 13.60L201.58 13.60L203.28 19.01L205.04 13.60L207.31 13.60L204.58 22L202.04 22L200.44 16.89L198.75 22L196.21 22ZM218.56 22L211.82 22L211.82 13.60L218.41 13.60L218.41 15.44L214.18 15.44L214.18 16.85L217.91 16.85L217.91 18.63L214.18 18.63L214.18 20.17L218.56 20.17L218.56 22ZM225.75 22L223.37 22L223.37 13.60L227.21 13.60Q228.36 13.60 229.19 13.98Q230.03 14.35 230.49 15.06Q230.95 15.76 230.95 16.71L230.95 16.71Q230.95 17.62 230.52 18.30Q230.09 18.98 229.30 19.36L229.30 19.36L231.11 22L228.57 22L227.04 19.77L225.75 19.77L225.75 22ZM225.75 15.47L225.75 17.93L227.07 17.93Q227.80 17.93 228.17 17.61Q228.54 17.29 228.54 16.71L228.54 16.71Q228.54 16.12 228.17 15.79Q227.80 15.47 227.07 15.47L227.07 15.47L225.75 15.47ZM247.25 22L242.70 22L242.70 13.60L247.01 13.60Q248.61 13.60 249.45 14.19Q250.29 14.79 250.29 15.79L250.29 15.79Q250.29 16.39 250.00 16.87Q249.70 17.34 249.16 17.62L249.16 17.62Q249.88 17.87 250.29 18.41Q250.70 18.94 250.70 19.70L250.70 19.70Q250.70 20.80 249.81 21.40Q248.92 22 247.25 22L247.25 22ZM245.06 18.58L245.06 20.28L247.05 20.28Q248.30 20.28 248.30 19.43L248.30 19.43Q248.30 18.58 247.05 18.58L247.05 18.58L245.06 18.58ZM245.06 15.31L245.06 16.94L246.69 16.94Q247.89 16.94 247.89 16.12L247.89 16.12Q247.89 15.31 246.69 15.31L246.69 15.31L245.06 15.31ZM257.79 22L255.41 22L255.41 13.60L257.79 13.60L257.79 22Z" fill="#000000" x="166.98"/></svg>